<svg width="38" height="30" viewBox="0 0 38 30" fill="none" xmlns="http://www.w3.org/2000/svg">
<path d="M30 16.875V13.125H37.5V16.875H30ZM32.25 30L26.25 25.5L28.5 22.5L34.5 27L32.25 30ZM28.5 7.5L26.25 4.5L32.25 0L34.5 3L28.5 7.5ZM5.625 28.125V20.625H3.75C2.71875 20.625 1.83625 20.2581 1.1025 19.5244C0.36875 18.7906 0.00125 17.9075 0 16.875V13.125C0 12.0938 0.3675 11.2113 1.1025 10.4775C1.8375 9.74375 2.72 9.37625 3.75 9.375H11.25L20.625 3.75V26.25L11.25 20.625H9.375V28.125H5.625ZM22.5 21.2812V8.71875C23.3437 9.46875 24.0237 10.3831 24.54 11.4619C25.0562 12.5406 25.3137 13.72 25.3125 15C25.3112 16.28 25.0531 17.46 24.5381 18.54C24.0231 19.62 23.3437 20.5338 22.5 21.2812Z" fill="#0299DE"/>
</svg>
