<svg width="33" height="31" viewBox="0 0 33 31" fill="none" xmlns="http://www.w3.org/2000/svg">
<path d="M20.8752 30.0935H6.29185V27.1768H20.8752V30.0935ZM31.0835 3.83329L24.1783 12.5177L23.8575 12.9114L15.6471 23.3968C15.3761 23.6678 15.0544 23.8828 14.7003 24.0294C14.3462 24.1761 13.9667 24.2516 13.5835 24.2516C13.2003 24.2516 12.8208 24.1761 12.4667 24.0294C12.1127 23.8828 11.791 23.6678 11.52 23.3968C11.249 23.1258 11.034 22.8041 10.8874 22.4501C10.7407 22.096 10.6652 21.7165 10.6652 21.3333C10.6652 20.9501 10.7407 20.5706 10.8874 20.2165C11.034 19.8624 11.249 19.5407 11.52 19.2698L31.0835 3.83329ZM2.85747 8.54954C0.75055 11.9233 -0.00711751 15.9673 0.735597 19.875H1.91685V18.4166C1.90234 15.5453 2.76195 12.7376 4.38143 10.3666L2.85747 8.54954ZM16.5002 0.916626C14.2698 0.916497 12.0642 1.38315 10.025 2.28657C7.98585 3.18999 6.15832 4.51019 4.65997 6.16225L6.32831 8.14996C8.30818 6.32981 10.8942 5.311 13.5835 5.29163C16.2874 5.31019 18.8867 6.33909 20.8708 8.17621L26.0479 4.08996C23.2909 2.03008 19.9417 0.916931 16.5002 0.916626ZM26.4606 14.3333L26.1208 14.7518L25.0591 16.1081C25.1839 16.8713 25.2478 17.6433 25.2502 18.4166V19.875H32.2648C32.9567 16.2253 32.3461 12.4486 30.5396 9.20288L26.4606 14.3333Z" fill="#0299DE"/>
</svg>
