<svg width="30" height="35" viewBox="0 0 30 35" fill="none" xmlns="http://www.w3.org/2000/svg">
<path d="M6.25017 11.2493C6.25017 8.92863 7.17207 6.70298 8.81306 5.06199C10.454 3.421 12.6797 2.4991 15.0004 2.4991C17.3211 2.4991 19.5468 3.421 21.1878 5.06199C22.8288 6.70298 23.7507 8.92863 23.7507 11.2493C23.7507 11.5809 23.8824 11.8988 24.1168 12.1333C24.3512 12.3677 24.6692 12.4994 25.0007 12.4994C25.3322 12.4994 25.6502 12.3677 25.8846 12.1333C26.119 11.8988 26.2507 11.5809 26.2507 11.2493C26.2506 9.3307 25.7597 7.44398 24.8248 5.76851C23.89 4.09304 22.5421 2.6845 20.9095 1.67677C19.2768 0.669034 17.4135 0.0955942 15.4967 0.0109541C13.5799 -0.0736861 11.6734 0.333286 9.95822 1.19319C8.24306 2.05309 6.77632 3.33735 5.69741 4.92389C4.61849 6.51044 3.96326 8.34655 3.79398 10.2577C3.6247 12.1689 3.947 14.0916 4.73025 15.843C5.5135 17.5945 6.73167 19.1166 8.26898 20.2646C9.58723 21.2493 11.1055 21.9329 12.7166 22.2671C12.9404 22.7691 13.3234 23.1834 13.8063 23.4458C14.2893 23.7083 14.8452 23.8042 15.3882 23.7189C15.9312 23.6336 16.4309 23.3717 16.81 22.9737C17.1892 22.5758 17.4266 22.064 17.4856 21.5176C17.5447 20.9711 17.4219 20.4205 17.1365 19.9508C16.8511 19.4811 16.4188 19.1185 15.9066 18.9192C15.3943 18.7199 14.8307 18.695 14.3029 18.8482C13.775 19.0015 13.3124 19.3244 12.9866 19.7671C11.0685 19.3135 9.3598 18.2256 8.13717 16.6797C6.91454 15.1337 6.24964 13.2203 6.25017 11.2493ZM7.50021 11.2493C7.5007 9.86954 7.8818 8.51662 8.60159 7.33944C9.32138 6.16226 10.352 5.20645 11.5799 4.57719C12.8079 3.94793 14.1856 3.6696 15.5615 3.77283C16.9375 3.87606 18.2583 4.35684 19.3786 5.16229C20.4989 5.96773 21.3753 7.06661 21.9114 8.33801C22.4475 9.60942 22.6224 11.0041 22.4171 12.3685C22.2117 13.7329 21.6339 15.0142 20.7472 16.0715C19.8606 17.1287 18.6995 17.9209 17.3917 18.3608C16.7192 17.8041 15.8735 17.4995 15.0004 17.4995C14.0916 17.4995 13.2591 17.8233 12.6091 18.3608C11.12 17.8599 9.82579 16.904 8.90913 15.628C7.99247 14.352 7.49965 12.8204 7.50021 11.2493ZM15.0004 6.24921C13.6743 6.24921 12.4025 6.776 11.4648 7.71371C10.5271 8.65142 10.0003 9.92322 10.0003 11.2493C10.0003 12.5755 10.5271 13.8473 11.4648 14.785C12.4025 15.7227 13.6743 16.2495 15.0004 16.2495C16.3265 16.2495 17.5983 15.7227 18.536 14.785C19.4738 13.8473 20.0006 12.5755 20.0006 11.2493C20.0006 9.92322 19.4738 8.65142 18.536 7.71371C17.5983 6.776 16.3265 6.24921 15.0004 6.24921ZM4.37512 19.9996H6.07392C7.07878 21.0262 8.25309 21.872 9.54526 22.4997H4.37512C3.87783 22.4997 3.4009 22.6972 3.04926 23.0488C2.69762 23.4005 2.50007 23.8774 2.50007 24.3747V24.9997C2.50007 26.841 3.6751 28.6861 5.94891 30.1324C8.20773 31.5699 11.4041 32.4999 14.9992 32.4999C18.5968 32.4999 21.7931 31.5699 24.0519 30.1324C26.327 28.6873 27.5008 26.8398 27.5008 24.9997V24.3747C27.5008 23.8774 27.3032 23.4005 26.9516 23.0488C26.5999 22.6972 26.123 22.4997 25.6257 22.4997H18.538C18.824 21.6908 18.824 20.8084 18.538 19.9996H25.6257C26.7861 19.9996 27.8989 20.4605 28.7194 21.281C29.5399 22.1015 30.0008 23.2144 30.0008 24.3747V24.9997C30.0008 27.9911 28.097 30.5211 25.3945 32.2412C22.6769 33.9712 18.998 35 15.0004 35C11.0028 35 7.3252 33.9712 4.60638 32.2412C1.9038 30.5211 0 27.9911 0 24.9997V24.3747C0 23.2144 0.460949 22.1015 1.28144 21.281C2.10194 20.4605 3.21477 19.9996 4.37512 19.9996Z" fill="#0299DE"/>
</svg>
