<svg width="35" height="35" viewBox="0 0 35 35" fill="none" xmlns="http://www.w3.org/2000/svg">
<g clip-path="url(#clip0_90_3190)">
<path d="M11.8638 2.28052e-05C11.5519 0.0593376 11.271 0.22696 11.0708 0.473281C10.8705 0.719602 10.7638 1.02877 10.7693 1.34618V2.69233H5.93127C4.85434 2.69233 4.03857 3.5081 4.03857 4.58502V32.9808C4.03857 34.1923 4.85434 35 5.93127 35H28.9424C30.0193 35 30.8351 34.1843 30.8351 33.1073V4.58502C30.9697 3.5081 30.1459 2.69233 29.069 2.69233H24.2309V1.34618C24.2309 0.989154 24.0891 0.646755 23.8366 0.394302C23.5842 0.141849 23.2418 2.28052e-05 22.8847 2.28052e-05H12.1155C12.0733 -0.00196073 12.0311 -0.00196073 11.989 2.28052e-05C11.9468 -0.00196073 11.9059 -0.00196073 11.8638 2.28052e-05ZM13.4617 2.69233H21.5386V5.38464H13.4617V2.69233ZM6.73088 5.38464H10.7693V6.73079C10.7693 7.08781 10.9112 7.43021 11.1636 7.68267C11.4161 7.93512 11.7585 8.07695 12.1155 8.07695H22.8847C23.2418 8.07695 23.5842 7.93512 23.8366 7.68267C24.0891 7.43021 24.2309 7.08781 24.2309 6.73079V5.38464H28.2693V32.3077H6.73088V5.38464ZM9.42319 12.1154V17.5H14.8078V12.1154H9.42319ZM10.7693 13.4616H13.4617V16.1539H10.7693V13.4616ZM17.5001 13.4616V16.1539H25.577V13.4616H17.5001ZM9.42319 20.1923V25.5769H14.8078V20.1923H9.42319ZM17.5001 21.5385V24.2308H25.577V21.5385H17.5001Z" fill="#0299DE"/>
</g>
<defs>
<clipPath id="clip0_90_3190">
<rect width="35" height="35" fill="white"/>
</clipPath>
</defs>
</svg>
