<svg width="137" height="136" viewBox="0 0 137 136" fill="none" xmlns="http://www.w3.org/2000/svg">
<path d="M50.4162 46.912C47.1202 46.912 44.3202 46.304 42.0162 45.088C39.7442 43.84 38.0162 42.08 36.8322 39.808C35.6482 37.536 35.0562 34.848 35.0562 31.744V10.96H42.9282V32.032C42.9282 33.568 43.2162 34.912 43.7922 36.064C44.4002 37.184 45.2482 38.048 46.3362 38.656C47.4562 39.264 48.8162 39.568 50.4162 39.568C52.0482 39.568 53.4082 39.264 54.4962 38.656C55.6162 38.048 56.4642 37.184 57.0402 36.064C57.6162 34.944 57.9042 33.6 57.9042 32.032V10.96H65.7762V31.744C65.7762 34.848 65.1842 37.536 64.0002 39.808C62.8162 42.08 61.0882 43.84 58.8162 45.088C56.5442 46.304 53.7442 46.912 50.4162 46.912ZM74.9618 55.6V19.696H81.0578V31.072L80.2418 31.024C80.3698 28.4 80.9138 26.192 81.8738 24.4C82.8338 22.576 84.1298 21.216 85.7618 20.32C87.3938 19.392 89.2338 18.928 91.2818 18.928C93.1058 18.928 94.7538 19.264 96.2258 19.936C97.7298 20.608 99.0098 21.552 100.066 22.768C101.154 23.952 101.97 25.36 102.514 26.992C103.09 28.592 103.378 30.352 103.378 32.272V33.376C103.378 35.264 103.106 37.04 102.562 38.704C102.018 40.336 101.218 41.76 100.162 42.976C99.1378 44.192 97.8738 45.152 96.3698 45.856C94.8978 46.528 93.2018 46.864 91.2818 46.864C89.2978 46.864 87.5058 46.464 85.9058 45.664C84.3378 44.832 83.0738 43.584 82.1138 41.92C81.1538 40.224 80.6258 38.08 80.5298 35.488L82.6418 38.368V55.6H74.9618ZM89.1218 40.432C90.4338 40.432 91.5698 40.112 92.5298 39.472C93.5218 38.832 94.2898 37.936 94.8338 36.784C95.3778 35.632 95.6498 34.304 95.6498 32.8C95.6498 31.296 95.3778 29.984 94.8338 28.864C94.2898 27.744 93.5378 26.88 92.5778 26.272C91.6178 25.632 90.4658 25.312 89.1218 25.312C87.9698 25.312 86.8818 25.584 85.8578 26.128C84.8338 26.672 84.0018 27.456 83.3618 28.48C82.7538 29.472 82.4498 30.688 82.4498 32.128V33.904C82.4498 35.28 82.7698 36.464 83.4098 37.456C84.0818 38.416 84.9298 39.152 85.9538 39.664C86.9778 40.176 88.0338 40.432 89.1218 40.432Z" fill="white"/>
<rect y="70" width="137" height="66" rx="10" fill="#0299DE"/>
<path d="M19.648 119L11.008 83.96H19.12L25.888 113.72L24.208 112.616H28.576L26.704 113.72L31.936 85.256H38.464L31.6 119H19.648ZM40.528 119L33.136 85.256H40L46.048 113.72L44.224 112.616H48.4L46.816 113.72L52.72 83.96H60.4L52.72 119H40.528ZM82.5576 119V111.224H81.2616V102.776C81.2616 101.432 80.9416 100.424 80.3016 99.752C79.6616 99.08 78.6376 98.744 77.2296 98.744C76.5256 98.744 75.5976 98.76 74.4456 98.792C73.2936 98.824 72.1096 98.872 70.8936 98.936C69.6776 99 68.5736 99.064 67.5816 99.128V92.648C68.3176 92.584 69.1816 92.52 70.1736 92.456C71.1656 92.392 72.1896 92.344 73.2456 92.312C74.3016 92.28 75.2936 92.264 76.2216 92.264C78.9096 92.264 81.1656 92.648 82.9896 93.416C84.8456 94.184 86.2536 95.352 87.2136 96.92C88.1736 98.456 88.6536 100.44 88.6536 102.872V119H82.5576ZM74.1576 119.672C72.2696 119.672 70.6056 119.336 69.1656 118.664C67.7576 117.992 66.6536 117.032 65.8536 115.784C65.0536 114.504 64.6536 112.984 64.6536 111.224C64.6536 109.304 65.1496 107.736 66.1416 106.52C67.1336 105.272 68.5256 104.36 70.3176 103.784C72.1096 103.176 74.1736 102.872 76.5096 102.872H82.1256V107.144H76.4616C75.1176 107.144 74.0776 107.48 73.3416 108.152C72.6376 108.792 72.2856 109.672 72.2856 110.792C72.2856 111.848 72.6376 112.712 73.3416 113.384C74.0776 114.024 75.1176 114.344 76.4616 114.344C77.3256 114.344 78.0936 114.2 78.7656 113.912C79.4696 113.592 80.0456 113.064 80.4936 112.328C80.9416 111.592 81.1976 110.568 81.2616 109.256L83.0856 111.176C82.9256 113 82.4776 114.536 81.7416 115.784C81.0376 117.032 80.0456 117.992 78.7656 118.664C77.5176 119.336 75.9816 119.672 74.1576 119.672ZM97.9056 119V83.96H105.634V119H97.9056ZM94.7856 89.624V83.96H105.634V89.624H94.7856ZM115.446 119V83.96H123.174V119H115.446ZM112.326 89.624V83.96H123.174V89.624H112.326Z" fill="white"/>
</svg>
