<svg width="34" height="35" viewBox="0 0 34 35" fill="none" xmlns="http://www.w3.org/2000/svg">
<path d="M29.3683 12.5002C28.806 12.4971 28.2485 12.6032 27.7267 12.8126L22.9642 6.86775C23.3557 6.30391 23.6089 5.65585 23.7035 4.97598C23.7981 4.29611 23.7313 3.60353 23.5085 2.95426C23.2858 2.305 22.9133 1.71728 22.4213 1.23865C21.9293 0.760013 21.3316 0.403909 20.6764 0.19914C20.0212 -0.00562868 19.3271 -0.0533125 18.6501 0.0599457C17.9731 0.173204 17.3322 0.444224 16.7794 0.851082C16.2266 1.25794 15.7772 1.78921 15.4678 2.40192C15.1584 3.01463 14.9975 3.69157 14.9982 4.37798C14.9982 4.53135 15.0061 4.68462 15.0216 4.8372L7.76319 7.86116C7.32595 7.32487 6.7677 6.89997 6.13431 6.62139C5.50093 6.3428 4.81048 6.21848 4.1197 6.25864C3.42892 6.29879 2.75752 6.50228 2.16068 6.85238C1.56384 7.20247 1.05858 7.68919 0.686425 8.27254C0.314271 8.85588 0.0858406 9.5192 0.0199033 10.208C-0.046034 10.8968 0.0524037 11.5914 0.307128 12.2348C0.561852 12.8781 0.965594 13.4519 1.48518 13.9088C2.00476 14.3658 2.62536 14.693 3.29597 14.8634L3.58494 22.1078C2.92279 22.3339 2.32455 22.7156 1.84045 23.2207C1.35635 23.7259 1.00051 24.3399 0.802825 25.011C0.605138 25.6822 0.571367 26.391 0.704347 27.0779C0.837327 27.7649 1.13318 28.4099 1.56706 28.9588C2.00094 29.5077 2.56018 29.9445 3.19783 30.2325C3.83549 30.5205 4.53293 30.6513 5.23162 30.614C5.9303 30.5766 6.60982 30.3722 7.21313 30.0178C7.81644 29.6635 8.32593 29.1695 8.69881 28.5775L16.2478 30.6924C16.2584 31.3958 16.4385 32.0863 16.7729 32.7053C17.1073 33.3243 17.5861 33.8534 18.1686 34.2479C18.7511 34.6423 19.4202 34.8904 20.1191 34.9711C20.818 35.0518 21.526 34.9627 22.1831 34.7114C22.8402 34.4601 23.427 34.054 23.8936 33.5275C24.3603 33.0011 24.693 32.3698 24.8637 31.6873C25.0343 31.0048 25.0378 30.2912 24.8738 29.6071C24.7098 28.9229 24.3832 28.2884 23.9217 27.7575L28.1718 21.0801C28.7734 21.2513 29.4047 21.2915 30.0231 21.1981C30.6415 21.1046 31.2327 20.8795 31.7567 20.5381C32.2808 20.1966 32.7255 19.7468 33.0609 19.2189C33.3962 18.6909 33.6145 18.0972 33.7009 17.4777C33.7873 16.8583 33.7398 16.2275 33.5616 15.6279C33.3835 15.0284 33.0788 14.474 32.6681 14.0023C32.2575 13.5305 31.7504 13.1523 31.1812 12.8932C30.6119 12.6341 29.9937 12.5001 29.3683 12.5002ZM20.6213 26.2455H20.4823L17.955 18.6653L25.2416 18.3185C25.4256 18.8348 25.7054 19.3117 26.0663 19.7243L21.8162 26.4017C21.427 26.2947 21.0249 26.2422 20.6213 26.2455ZM6.08252 22.0079L5.79355 14.7635C6.38264 14.5606 6.92158 14.2341 7.37426 13.806L14.0173 17.6547L7.54139 22.6873C7.10132 22.3725 6.60665 22.1422 6.08252 22.0079ZM19.6169 8.75148C20.0965 8.72529 20.5683 8.61972 21.0133 8.43909L25.7758 14.3839C25.4721 14.8201 25.2509 15.3082 25.1229 15.8241L17.8488 16.1708L19.6169 8.75148ZM9.0768 24.6601L15.623 19.5696L18.1128 27.0405C17.6386 27.3748 17.2352 27.7995 16.9257 28.2901L9.37514 26.1721C9.36598 25.6544 9.26496 25.1424 9.0768 24.6601ZM19.3717 2.50363C19.7424 2.50363 20.1048 2.61355 20.413 2.81951C20.7213 3.02547 20.9615 3.3182 21.1034 3.6607C21.2453 4.00319 21.2824 4.38006 21.21 4.74365C21.1377 5.10724 20.9592 5.44122 20.6971 5.70335C20.4349 5.96549 20.101 6.144 19.7374 6.21632C19.3738 6.28865 18.9969 6.25153 18.6544 6.10966C18.3119 5.9678 18.0192 5.72756 17.8132 5.41932C17.6073 5.11108 17.4974 4.74869 17.4974 4.37798C17.4974 3.88087 17.6948 3.40412 18.0463 3.05261C18.3978 2.7011 18.8746 2.50363 19.3717 2.50363ZM15.9854 7.14266C16.3211 7.55202 16.7273 7.89798 17.185 8.16418L15.4199 15.5757L8.63008 11.6442C8.70997 11.3107 8.75034 10.9688 8.75035 10.6258C8.75032 10.4725 8.7425 10.3192 8.72692 10.1666L15.9854 7.14266ZM2.5025 10.6258C2.5025 10.2551 2.61242 9.89274 2.81838 9.5845C3.02434 9.27627 3.31707 9.03602 3.65957 8.89416C4.00206 8.75229 4.37893 8.71517 4.74252 8.7875C5.10611 8.85982 5.44009 9.03833 5.70222 9.30047C5.96436 9.5626 6.14287 9.89658 6.21519 10.2602C6.28752 10.6238 6.2504 11.0006 6.10853 11.3431C5.96667 11.6856 5.72643 11.9784 5.41819 12.1843C5.10995 12.3903 4.74757 12.5002 4.37685 12.5002C3.87974 12.5002 3.40299 12.3027 3.05148 11.9512C2.69997 11.5997 2.5025 11.1229 2.5025 10.6258ZM5.00164 28.1198C4.63093 28.1198 4.26854 28.0099 3.9603 27.8039C3.65206 27.598 3.41182 27.3053 3.26996 26.9628C3.12809 26.6203 3.09097 26.2434 3.1633 25.8798C3.23562 25.5162 3.41413 25.1822 3.67627 24.9201C3.9384 24.658 4.27238 24.4795 4.63597 24.4071C4.99956 24.3348 5.37643 24.3719 5.71892 24.5138C6.06142 24.6557 6.35415 24.8959 6.56011 25.2041C6.76607 25.5124 6.876 25.8748 6.876 26.2455C6.876 26.7426 6.67852 27.2193 6.32701 27.5708C5.9755 27.9224 5.49875 28.1198 5.00164 28.1198ZM20.6213 32.4933C20.2506 32.4933 19.8882 32.3834 19.5799 32.1774C19.2717 31.9715 19.0315 31.6788 18.8896 31.3363C18.7477 30.9938 18.7106 30.6169 18.7829 30.2533C18.8553 29.8897 19.0338 29.5557 19.2959 29.2936C19.558 29.0315 19.892 28.853 20.2556 28.7806C20.6192 28.7083 20.9961 28.7454 21.3386 28.8873C21.6811 29.0292 21.9738 29.2694 22.1797 29.5776C22.3857 29.8859 22.4956 30.2483 22.4956 30.619C22.4956 31.1161 22.2982 31.5928 21.9466 31.9443C21.5951 32.2959 21.1184 32.4933 20.6213 32.4933ZM29.3683 18.7481C28.9976 18.7481 28.6352 18.6381 28.3269 18.4322C28.0187 18.2262 27.7785 17.9335 27.6366 17.591C27.4947 17.2485 27.4576 16.8716 27.5299 16.508C27.6023 16.1444 27.7808 15.8105 28.0429 15.5483C28.305 15.2862 28.639 15.1077 29.0026 15.0354C29.3662 14.963 29.7431 15.0001 30.0856 15.142C30.4281 15.2839 30.7208 15.5241 30.9267 15.8324C31.1327 16.1406 31.2426 16.503 31.2426 16.8737C31.2426 17.3708 31.0452 17.8476 30.6936 18.1991C30.3421 18.5506 29.8654 18.7481 29.3683 18.7481Z" fill="#0299DE"/>
</svg>
