<svg width="120" height="40" viewBox="0 0 120 40" fill="none" xmlns="http://www.w3.org/2000/svg">
<path d="M9.384 28.456C7.752 28.456 6.376 28.144 5.256 27.52C4.136 26.896 3.28 26.024 2.688 24.904C2.112 23.768 1.824 22.44 1.824 20.92V10.48H5.232V21.112C5.232 21.944 5.392 22.68 5.712 23.32C6.032 23.944 6.496 24.432 7.104 24.784C7.728 25.12 8.488 25.288 9.384 25.288C10.264 25.288 11.008 25.12 11.616 24.784C12.24 24.432 12.704 23.944 13.008 23.32C13.328 22.696 13.488 21.96 13.488 21.112V10.48H16.896V20.92C16.896 22.44 16.608 23.768 16.032 24.904C15.472 26.024 14.632 26.896 13.512 27.52C12.392 28.144 11.016 28.456 9.384 28.456ZM23.8146 22.624V19.672H27.2226C27.9106 19.672 28.4866 19.536 28.9506 19.264C29.4306 18.992 29.7906 18.616 30.0306 18.136C30.2866 17.656 30.4146 17.104 30.4146 16.48C30.4146 15.856 30.2866 15.304 30.0306 14.824C29.7906 14.344 29.4306 13.976 28.9506 13.72C28.4866 13.448 27.9106 13.312 27.2226 13.312H23.8146V10.36H26.9346C28.4066 10.36 29.6546 10.6 30.6786 11.08C31.7186 11.56 32.5106 12.248 33.0546 13.144C33.5986 14.024 33.8706 15.072 33.8706 16.288V16.672C33.8706 17.888 33.5986 18.944 33.0546 19.84C32.5106 20.72 31.7186 21.408 30.6786 21.904C29.6546 22.384 28.4066 22.624 26.9346 22.624H23.8146ZM20.8866 28V10.36H24.2946V28H20.8866Z" fill="#0299DE"/>
<rect x="40" width="80" height="40" rx="10" fill="#0299DE"/>
<path d="M50.04 28L45.576 10.48H49.104L52.728 25.72L51.792 25.168H54.192L53.136 25.72L55.992 11.152H58.92L55.368 28H50.04ZM60.504 28L56.64 11.152H59.688L62.976 25.72L61.944 25.168H64.296L63.384 25.72L66.576 10.48H69.912L65.928 28H60.504ZM70.0883 28L76.0643 10.48H81.6323L87.7763 28H84.2723L79.0643 12.808L80.2883 13.336H77.2883L78.5363 12.808L73.4963 28H70.0883ZM74.2643 23.344L75.3443 20.464H82.4483L83.5043 23.344H74.2643ZM90.3788 28V10.48H93.7868V28H90.3788ZM93.3068 28V25H100.867V28H93.3068ZM103.644 28V10.48H107.052V28H103.644ZM106.572 28V25H114.132V28H106.572Z" fill="white"/>
</svg>
